<svg xmlns="http://www.w3.org/2000/svg" version="1.1" xmlns:xlink="http://www.w3.org/1999/xlink" xmlns:svgjs="http://svgjs.dev/svgjs" width="1800" height="560" preserveAspectRatio="none" viewBox="0 0 1800 560"><g mask="url(&quot;#SvgjsMask1044&quot;)" fill="none"><path d="M1883.1 520.08C1754.51 519.92 1628.31 450.08 1373.52 450.08 1118.73 450.08 1143.12 530.47 863.94 520.08 584.76 509.69 532.36 36.38 354.36-8.25" stroke="rgba(46, 125, 50, 1)" stroke-width="2"></path><path d="M1852.62 454.73C1664.38 453.95 1419.94 316.01 1114.98 303.53 810.02 291.05 872.57-32.27 746.16-61.25" stroke="rgba(46, 125, 50, 1)" stroke-width="2"></path><path d="M1940.85 389.33C1704.4 388.59 1376.35 220.76 1011.12 215.73 645.89 210.7 679.38-37.51 546.26-46.33" stroke="rgba(46, 125, 50, 1)" stroke-width="2"></path><path d="M1888.08 120.75C1750.28 120.61 1614.7 50.75 1341.33 50.75 1067.95 50.75 1068.52 120.79 794.58 120.75 520.64 120.71 388.94-18.45 247.83-19.56" stroke="rgba(46, 125, 50, 1)" stroke-width="2"></path><path d="M2042.28 479.72C1801.18 479.39 1471.05 354.81 1087.29 345.32 703.53 335.83 766.02-45.07 609.8-73.26" stroke="rgba(46, 125, 50, 1)" stroke-width="2"></path></g><defs><mask id="SvgjsMask1044"><rect width="1800" height="560" fill="#ffffff"></rect></mask></defs></svg>